<svg width="42" height="22" viewBox="0 0 42 22" fill="none" xmlns="http://www.w3.org/2000/svg">
<g clip-path="url(#clip0)">
<path d="M41.626 12.2969C31.7976 10.6946 18.6288 11.5207 9.58031 14.247C9.46332 14.2821 9.39596 14.3424 9.35918 14.4603C9.33126 14.5485 9.24175 14.8927 9.22801 14.9517C9.19699 15.0835 9.26435 15.2558 9.42077 15.2189C20.0061 12.755 29.7149 12.6141 40.3795 15.1856C40.8279 15.2936 41.1528 15.0155 41.3021 14.6232C41.3021 14.6232 41.7754 13.3921 41.9531 12.9615C42.0811 12.651 41.9402 12.3482 41.626 12.2969Z" fill="#A8AFC9"/>
<path d="M10.3841 11.703C10.5139 12.3433 11.5048 13.0636 12.3747 12.8351C13.0119 12.6677 13.8087 11.2593 14.5248 9.6777C14.5168 9.79109 14.5164 9.87793 14.5257 9.93238C14.656 10.6946 15.9442 11.2413 16.546 11.1081C16.8695 11.0366 17.1841 10.7185 17.4823 10.2559C17.7234 10.6703 18.5977 10.8426 19.1459 10.7882C19.4251 10.7603 19.5797 10.5916 19.6457 10.4512C19.944 9.81539 21.4653 6.90056 23.0695 4.22286C22.4291 6.40516 21.8021 8.76519 21.8326 9.16205C21.8739 9.6975 22.9285 9.93238 23.5565 9.86984C23.8356 9.84194 23.9624 9.7434 24.028 9.60301C24.2841 9.05631 25.5151 6.77727 26.9088 4.56033C26.3598 6.33361 25.8311 8.14514 25.8586 8.50196C25.918 9.27544 27.3236 9.95488 27.9343 9.89413C28.5693 9.83114 29.269 8.84528 29.8987 7.66279C30.2333 8.83628 31.4098 10.0143 32.2527 10.1344C35.067 10.5349 38.477 5.4211 39.3008 3.17266C39.311 3.14476 39.3199 3.11686 39.3274 3.08896C40.5256 5.34056 41.2032 8.35168 39.8029 9.43698C39.1271 9.96073 38.1407 9.21065 38.4797 7.72398C38.5266 7.51835 38.3755 7.35277 38.15 7.43736C37.7423 7.58945 37.2433 7.94221 36.77 8.36967C36.6624 8.46686 36.6065 8.5861 36.6096 8.72019C36.6499 10.5772 38.8227 11.3165 40.4756 9.80909C42.2468 8.19374 42.7679 4.56168 40.4299 0.154786C40.3732 0.0476956 40.2779 -0.0269975 40.133 0.00989908C39.8259 0.0881918 38.742 0.508003 38.2444 0.85897C38.1704 0.911166 38.1269 0.994408 38.1145 1.0853C37.4596 3.62306 34.2198 9.41223 31.8051 9.06846C31.4054 9.01176 31.3012 8.67565 31.358 8.16224C31.4165 7.80138 31.5037 7.43241 31.6132 7.0612C33.8834 7.19888 36.5383 3.61721 36.5383 1.99152C36.5396 0.958861 34.9727 0 33.9481 0C33.0583 0 31.3442 2.45587 30.3897 4.90949C29.7064 6.43935 28.8108 8.36832 28.349 8.41422C28.2967 8.41917 28.2573 8.36337 28.248 8.24459C28.1704 7.24028 29.713 2.49097 30.0511 1.71209C30.1384 1.51096 30.0556 1.27248 29.8779 1.17934C29.577 1.02141 29.1112 0.831973 28.7004 0.718583C28.4523 0.65019 28.2418 0.797326 28.0911 0.986309C27.8669 1.26843 26.0846 3.88314 24.6492 6.24407C25.193 4.09822 25.9605 1.78138 26.1502 1.19869C26.2118 1.01016 26.1174 0.844572 25.9756 0.781128C25.6849 0.65064 25.2475 0.460307 24.7809 0.304622C24.534 0.222279 24.3045 0.366716 24.1627 0.563348C23.9584 0.846372 21.9793 3.97223 20.3969 6.70708V6.70663C20.7199 5.53584 21.8105 1.98747 21.8163 1.96902C21.8566 1.83898 21.8189 1.69544 21.7174 1.64505C21.4289 1.50196 20.8843 1.25718 20.3322 1.0835C20.0769 1.00341 19.9697 1.1015 19.901 1.33773C19.6887 2.06801 19.3839 3.06107 19.0604 4.11712C18.6629 5.12817 17.4912 9.43878 16.8212 9.58726C16.7525 9.60256 16.725 9.54766 16.7051 9.43068C16.5455 8.49746 17.6264 4.03298 17.8688 3.11506C17.9326 2.87343 17.9113 2.74745 17.7075 2.64171C17.4119 2.48827 16.764 2.32763 16.573 2.29659C16.3833 2.26599 16.2934 2.35283 16.23 2.54271C16.1387 2.81674 16.0337 3.13351 15.8387 3.68741C15.8387 3.68741 14.3954 2.08376 13.1861 2.40683C11.7889 2.78074 10.0181 9.89908 10.3841 11.703ZM34.7537 1.39352C35.1911 2.82484 33.0946 5.67307 31.8764 6.27557C32.6697 4.13422 34.0505 2.08511 34.7537 1.39352ZM14.3165 3.7243C14.6919 3.62576 15.4674 4.45324 15.5383 4.53648C14.7477 6.84837 12.9198 11.1806 12.493 11.2926C12.4589 11.3016 12.4336 11.2674 12.4221 11.2089C12.2488 10.3558 13.7874 3.86334 14.3165 3.7243Z" fill="#A8AFC9"/>
<path d="M10.1701 4.29256C9.76195 4.16432 9.02678 4.00998 8.44804 3.97669C8.17994 3.96139 8.01332 4.11122 7.9885 4.3695C7.4328 10.2037 6.96529 18.3416 4.51339 19.6172C3.23981 20.28 1.67508 18.4712 3.1144 15.766C3.24114 15.5276 3.13567 15.2778 2.84142 15.2814C2.10714 15.2904 1.29531 15.4835 0.814498 15.6702C0.644332 15.7363 0.509174 15.8767 0.436942 16.0482C-1.26383 20.1005 2.38056 22.3332 4.76864 20.8758C7.32778 19.3144 8.59029 14.9692 10.3615 4.66692C10.3961 4.46849 10.3278 4.34205 10.1701 4.29256Z" fill="#A8AFC9"/>
</g>
<defs>
<clipPath id="clip0">
<rect width="42" height="21.3231" fill="white"/>
</clipPath>
</defs>
</svg>
